<?xml version="1.0" encoding="UTF-8" standalone="no"?>
<svg
   xmlns:dc="http://purl.org/dc/elements/1.1/"
   xmlns:cc="http://creativecommons.org/ns#"
   xmlns:rdf="http://www.w3.org/1999/02/22-rdf-syntax-ns#"
   xmlns:svg="http://www.w3.org/2000/svg"
   xmlns="http://www.w3.org/2000/svg"
   viewBox="0 0 1365.3333 1365.3333"
   height="1365.3333"
   width="1365.3333"
   xml:space="preserve"
   id="svg2"
   version="1.1"><metadata
     id="metadata8"><rdf:RDF><cc:Work
         rdf:about=""><dc:format>image/svg+xml</dc:format><dc:type
           rdf:resource="http://purl.org/dc/dcmitype/StillImage" /></cc:Work></rdf:RDF></metadata><defs
     id="defs6"><clipPath
       id="clipPath18"
       clipPathUnits="userSpaceOnUse"><path
         id="path16"
         d="M 0,1024 H 1024 V 0 H 0 Z" /></clipPath></defs><g
     transform="matrix(1.3333333,0,0,-1.3333333,0,1365.3333)"
     id="g10"><g
       id="g12"><g
         clip-path="url(#clipPath18)"
         id="g14"><g
           transform="translate(588.8203,581.6729)"
           id="g20"><path
             id="path22"
             style="fill:#efb241;fill-opacity:1;fill-rule:nonzero;stroke:none"
             d="m 0,0 c -1.991,8.469 -4.894,16.858 -8.808,25.028 -29.324,61.214 -108.463,99.047 -169.676,69.723 -61.211,-29.323 -81.324,-114.703 -52,-175.917 3.914,-8.17 8.634,-15.688 13.984,-22.548 -31.134,-56.497 -35.503,-126.655 -5.509,-189.265 39.14,-81.705 119.198,-113.919 204.415,-104.093 23.972,2.143 32.4,28.674 55.647,39.81 23.249,11.137 46.211,-0.355 65.899,18.416 61.061,60.248 86.128,142.824 46.988,224.528 C 120.947,-51.708 63.538,-11.145 0,0" /></g><g
           transform="translate(382.0015,756.8643)"
           id="g24"><path
             id="path26"
             style="fill:#f6cf68;fill-opacity:1;fill-rule:nonzero;stroke:none"
             d="M 0,0 C 0,0 -33.181,-53.345 -117.144,8.239 -25.387,57.469 0,0 0,0" /></g><g
           transform="translate(397.7056,706.2607)"
           id="g28"><path
             id="path30"
             style="fill:#f6cf68;fill-opacity:1;fill-rule:nonzero;stroke:none"
             d="M 0,0 C 0,0 -26.199,72.85 97.118,105.453 74.76,-20.123 0,0 0,0" /></g><g
           transform="translate(404.1235,616.3574)"
           id="g32"><path
             id="path34"
             style="fill:#efb241;fill-opacity:1;fill-rule:nonzero;stroke:none"
             d="M 0,0 C 0,0 -29.086,-50.762 3.517,-99.598" /></g><g
           transform="translate(406.646,442.624)"
           id="g36"><path
             id="path38"
             style="fill:#3caae1;fill-opacity:1;fill-rule:nonzero;stroke:none"
             d="M 0,0 C 0,0 -20.071,-20.638 -13.122,-57.853" /></g><g
           transform="translate(397.7056,706.2607)"
           id="g40"><path
             id="path42"
             style="fill:#f6cf68;fill-opacity:1;fill-rule:nonzero;stroke:none"
             d="M 0,0 63.922,74.061" /></g><g
           transform="translate(382.0015,756.8643)"
           id="g44"><path
             id="path46"
             style="fill:#f6cf68;fill-opacity:1;fill-rule:nonzero;stroke:none"
             d="M 0,0 -58.571,4.12" /></g><g
           transform="translate(614.1113,526.6841)"
           id="g48"><path
             id="path50"
             style="fill:#efb241;fill-opacity:1;fill-rule:nonzero;stroke:none"
             d="m 0,0 c 31.2,-10.218 59.266,-30.731 78.611,-60.364 45.164,-69.187 25.693,-161.887 -43.496,-207.054" /></g><g
           transform="translate(455.894,681.6294)"
           id="g52"><path
             id="path54"
             style="fill:#2f3a78;fill-opacity:1;fill-rule:nonzero;stroke:none"
             d="m 0,0 c -14.728,0 -29.444,-3.012 -43.405,-9.699 -27.644,-13.243 -47.993,-39.108 -57.3,-72.832 -8.957,-32.453 -6.171,-67.605 7.642,-96.438 3.649,-7.62 8.165,-14.9 13.419,-21.637 1.226,-1.572 1.396,-3.724 0.434,-5.47 -31.441,-57.055 -33.453,-126.104 -5.379,-184.707 31.491,-65.737 94.135,-102.964 170.755,-102.967 9.337,-10e-4 18.872,0.55 28.595,1.672 11.864,1.062 19.489,9.115 28.317,18.438 6.971,7.361 14.872,15.706 25.748,20.916 10.772,5.16 21.132,5.831 31.151,6.48 12.594,0.816 23.471,1.521 33.462,11.047 64.069,63.217 81.263,145.021 45.935,218.769 -28.075,58.602 -83.142,100.309 -147.31,111.564 -1.963,0.344 -3.532,1.826 -3.988,3.768 -1.952,8.304 -4.795,16.383 -8.451,24.015 C 99.005,-34.037 49.485,0 0,0 m 85.958,-503.736 c -80.416,-0.004 -146.306,39.282 -179.535,108.647 -28.994,60.523 -27.412,131.659 4.093,190.964 -4.856,6.559 -9.076,13.56 -12.567,20.851 -14.837,30.97 -17.848,68.656 -8.261,103.394 10.085,36.546 32.317,64.661 62.601,79.169 30.285,14.508 66.128,14.211 100.927,-0.83 33.078,-14.299 60.56,-40.264 75.397,-71.234 3.496,-7.299 6.306,-14.976 8.374,-22.86 65.956,-12.617 122.382,-55.964 151.374,-116.487 37.252,-77.762 19.313,-163.828 -47.983,-230.227 -12.673,-12.085 -26.442,-12.978 -39.757,-13.84 -9.492,-0.614 -18.456,-1.195 -27.489,-5.522 -9.213,-4.414 -16.129,-11.718 -22.817,-18.782 -9.364,-9.887 -19.048,-20.114 -34.539,-21.499 -10.127,-1.167 -20.085,-1.743 -29.818,-1.744" /></g><g
           transform="translate(409.8179,671.1895)"
           id="g56"><path
             id="path58"
             style="fill:#2f3a78;fill-opacity:1;fill-rule:nonzero;stroke:none"
             d="m 0,0 c -1.581,0 -3.135,0.749 -4.102,2.147 -0.626,0.903 -61.645,91.248 14.07,171.428 1.889,2 5.044,2.092 7.044,0.202 2.001,-1.889 2.091,-5.043 0.202,-7.044 C -53.019,92.358 3.513,8.655 4.092,7.818 5.658,5.556 5.094,2.452 2.831,0.885 1.966,0.287 0.978,0 0,0" /></g><g
           transform="translate(382.0015,756.8643)"
           id="g60"><path
             id="path62"
             style="fill:#c2d785;fill-opacity:1;fill-rule:nonzero;stroke:none"
             d="M 0,0 C 0,0 -33.181,-53.345 -117.144,8.239 -25.387,57.469 0,0 0,0" /></g><g
           transform="translate(274.4224,764.4307)"
           id="g64"><path
             id="path66"
             style="fill:#2f3a78;fill-opacity:1;fill-rule:nonzero;stroke:none"
             d="m 0,0 c 28.125,-19.224 52.905,-26.975 73.743,-23.06 15.608,2.938 24.497,11.729 27.946,15.909 C 98.859,-2.529 91.288,7.421 76.244,12.513 56.165,19.316 30.536,15.098 0,0 m 62.94,-34.012 c -22.34,0 -47.652,10.276 -75.452,30.666 -1.381,1.013 -2.145,2.661 -2.024,4.367 0.12,1.708 1.107,3.233 2.615,4.042 36.406,19.535 67.238,25.188 91.646,16.793 23.67,-8.14 32.066,-26.625 32.413,-27.408 0.665,-1.508 0.542,-3.246 -0.327,-4.645 -0.453,-0.728 -11.354,-17.854 -35.93,-22.6 -4.194,-0.81 -8.509,-1.215 -12.941,-1.215" /></g><g
           transform="translate(397.7056,706.2607)"
           id="g68"><path
             id="path70"
             style="fill:#c2d785;fill-opacity:1;fill-rule:nonzero;stroke:none"
             d="M 0,0 C 0,0 -26.199,72.85 97.118,105.453 74.76,-20.123 0,0 0,0" /></g><g
           transform="translate(401.6685,710.5854)"
           id="g72"><path
             id="path74"
             style="fill:#2f3a78;fill-opacity:1;fill-rule:nonzero;stroke:none"
             d="M 0,0 C 6.315,-0.9 22.85,-1.809 40.042,9.201 62.412,23.526 78.107,52.091 86.751,94.173 45.385,82.062 18.166,63.998 5.784,40.419 -3.707,22.345 -1.431,6.162 0,0 m 7.473,-10.507 c -7.452,0 -12.291,1.252 -12.731,1.371 -1.575,0.423 -2.842,1.591 -3.393,3.125 -0.353,0.978 -8.457,24.271 5.613,51.064 14.484,27.583 46.419,48.07 94.92,60.892 1.647,0.431 3.397,0.002 4.65,-1.152 1.25,-1.151 1.828,-2.863 1.53,-4.539 C 89.268,50.868 71.475,17.357 45.177,0.656 30.833,-8.454 17.013,-10.507 7.473,-10.507" /></g><g
           transform="translate(407.645,511.7773)"
           id="g76"><path
             id="path78"
             style="fill:#2f3a78;fill-opacity:1;fill-rule:nonzero;stroke:none"
             d="m 0,0 c -1.609,0 -3.188,0.777 -4.149,2.216 -33.926,50.817 -4.947,102.66 -3.696,104.841 1.369,2.388 4.413,3.217 6.8,1.847 2.387,-1.367 3.214,-4.409 1.849,-6.796 C -0.325,100.123 -26.294,53.335 4.14,7.749 5.668,5.461 5.051,2.366 2.762,0.838 1.913,0.271 0.95,0 0,0" /></g><g
           transform="translate(393.5176,379.7871)"
           id="g80"><path
             id="path82"
             style="fill:#2f3a78;fill-opacity:1;fill-rule:nonzero;stroke:none"
             d="m 0,0 c -2.352,0 -4.445,1.673 -4.892,4.069 -7.339,39.301 13.556,61.325 14.449,62.243 1.92,1.973 5.073,2.018 7.046,0.097 1.968,-1.913 2.016,-5.058 0.111,-7.031 C 15.95,58.577 -1.443,39.889 4.904,5.898 5.41,3.193 3.626,0.591 0.921,0.086 0.612,0.028 0.304,0 0,0" /></g><g
           transform="translate(397.7036,701.2778)"
           id="g84"><path
             id="path86"
             style="fill:#2f3a78;fill-opacity:1;fill-rule:nonzero;stroke:none"
             d="M 0,0 C -1.153,0 -2.312,0.398 -3.253,1.21 -5.337,3.008 -5.568,6.156 -3.77,8.238 L 60.151,82.3 c 1.798,2.085 4.944,2.316 7.028,0.517 2.084,-1.798 2.315,-4.945 0.517,-7.028 L 3.775,1.728 C 2.79,0.585 1.399,0 0,0" /></g><g
           transform="translate(382.0068,751.8818)"
           id="g88"><path
             id="path90"
             style="fill:#2f3a78;fill-opacity:1;fill-rule:nonzero;stroke:none"
             d="m 0,0 c -0.117,0 -0.236,0.004 -0.354,0.012 l -58.571,4.119 c -2.746,0.194 -4.816,2.576 -4.622,5.32 0.193,2.745 2.584,4.834 5.32,4.622 L 0.344,9.954 C 3.09,9.76 5.159,7.378 4.966,4.634 4.781,2.007 2.593,0 0,0" /></g><g
           transform="translate(649.2314,254.2832)"
           id="g92"><path
             id="path94"
             style="fill:#2f3a78;fill-opacity:1;fill-rule:nonzero;stroke:none"
             d="m 0,0 c -1.628,0 -3.222,0.796 -4.178,2.26 -1.504,2.303 -0.855,5.391 1.449,6.896 66.776,43.591 85.638,133.382 42.047,200.157 -18.179,27.848 -44.457,48.025 -75.989,58.351 -2.616,0.857 -4.042,3.672 -3.185,6.287 0.858,2.614 3.671,4.039 6.287,3.185 C -0.341,266.254 28.508,244.103 47.664,214.761 94.258,143.383 74.096,47.406 2.719,0.811 1.878,0.262 0.935,0 0,0" /></g><g
           transform="translate(604.8174,293.0664)"
           id="g96"><path
             id="path98"
             style="fill:#2f3a78;fill-opacity:1;fill-rule:nonzero;stroke:none"
             d="m 0,0 c 5.4,4.261 10.542,8.699 15.282,13.189 9.356,8.86 15.555,19.945 19.909,28.611 12.321,24.515 13.051,49.546 2.235,76.522 -10.98,27.379 -37.12,42.952 -66.61,39.68 -6.857,-0.762 -13.822,-2.444 -20.558,-4.071 -4.229,-1.022 -8.602,-2.078 -12.968,-2.916 l -1.557,-0.299 c -9.115,-1.754 -18.539,-3.568 -27.972,-4.359 -11.855,-1.003 -22.422,2.847 -30.548,11.114 -7.801,7.938 -11.124,18.658 -9.117,29.411 2.046,10.956 9.191,19.941 19.603,24.654 7.025,3.18 14.514,4.444 22.907,3.877 0.951,-0.064 3.318,-0.392 4.761,-2.042 7.393,-8.455 17.32,-14.019 31.245,-17.515 0.963,-0.242 1.875,-0.514 3.03,-0.859 0.583,-0.174 1.229,-0.367 1.972,-0.583 l 6.453,-1.872 -42.508,-26.498 c 2.996,-1.69 6.365,-2.417 10.191,-2.242 2.729,0.132 5.412,0.874 7.177,1.985 13.611,8.573 27.341,17.48 40.619,26.092 l 9.282,6.017 c 0.575,0.373 1.154,0.838 1.767,1.332 0.569,0.457 1.157,0.93 1.807,1.382 4.121,2.87 5.32,8.04 3.388,13.913 -2.106,-1.174 -4.283,-2.388 -6.5,-3.502 -13.054,-6.568 -24.181,-8.087 -35.012,-4.785 -9.688,2.954 -18.202,8.967 -25.304,17.871 -1.237,1.551 -2.348,2.292 -3.964,2.642 -16.357,3.543 -31.185,0.545 -44.08,-8.906 -20.033,-14.685 -25.464,-41.14 -12.633,-61.537 8.371,-13.307 20.351,-20.394 36.625,-21.666 16.034,-1.254 32.807,1.041 52.789,7.219 9.353,2.892 20.535,5.655 32.532,4.234 18.844,-2.235 32.598,-12.167 40.881,-29.522 7.004,-14.674 9.217,-30.624 6.577,-47.407 C 29.551,55.495 23.44,42.488 13.537,30.506 0.683,14.952 -13.167,3.636 -28.805,-4.091 c -25.44,-12.57 -50.542,-15.128 -74.609,-7.605 -29.068,9.085 -48.456,36.598 -48.245,68.464 0.016,2.325 0.034,4.96 2.156,6.298 2.112,1.334 4.485,0.223 6.578,-0.757 10.766,-5.043 20.887,-4.553 30.082,1.46 5.253,3.435 10.249,7.621 15.081,11.669 2.261,1.894 4.598,3.852 6.952,5.728 1.98,1.577 3.973,3.256 5.9,4.879 4.588,3.864 9.332,7.859 14.565,11.083 9.767,6.018 21.293,7.63 33.332,4.663 12.378,-3.051 19.825,-13.24 18.969,-25.959 -1.249,-18.598 -16.045,-37.693 -33.683,-43.474 -6.075,-1.992 -11.658,-1.777 -16.586,0.641 -5.098,2.499 -8.692,6.609 -10.118,11.573 -1.445,5.032 -0.546,10.535 2.534,15.497 2.393,3.858 5.088,7.549 7.695,11.119 l 1.075,1.474 c -4.516,-1.402 -8.259,-3.553 -11.492,-6.565 -9.858,-9.186 -12.494,-22.219 -6.881,-34.014 4.009,-8.425 11.097,-13.168 21.067,-14.099 9.001,-0.841 17.852,1.826 27.047,8.155 18.479,12.717 28.798,29.09 30.673,48.663 1.917,20.011 -12.125,37.002 -32.662,39.521 -17.22,2.113 -32.913,-2.349 -46.652,-13.263 -3.6,-2.861 -7.215,-5.851 -10.71,-8.743 -4.223,-3.493 -8.59,-7.106 -13,-10.547 -2.828,-2.207 -6.185,-4.191 -10.566,-6.242 -10.329,-4.837 -20.19,-2.815 -30.145,6.179 -2.356,2.129 -4.568,4.42 -6.707,6.635 -0.61,0.631 -1.22,1.262 -1.833,1.89 -0.302,-1.622 -0.609,-3.234 -0.911,-4.82 -1.295,-6.803 -2.635,-13.838 -3.43,-20.761 -1.794,-15.61 0.34,-29.823 6.343,-42.243 15.714,-32.515 41.658,-49.586 77.11,-50.736 15.078,-0.491 30.783,2.348 46.665,8.429 C -22.615,-15.842 -12.063,-9.519 0,0" /></g><g
           transform="translate(517.1689,476.9141)"
           id="g100"><path
             id="path102"
             style="fill:#2f3a78;fill-opacity:1;fill-rule:nonzero;stroke:none"
             d="m 0,0 c 0,-5.299 -4.295,-9.594 -9.594,-9.594 -5.298,0 -9.593,4.295 -9.593,9.594 0,5.298 4.295,9.594 9.593,9.594 C -4.295,9.594 0,5.298 0,0" /></g></g></g></g></svg>